<?xml version="1.0" encoding="UTF-8"?>
<svg version="1.1" xmlns="http://www.w3.org/2000/svg" width="512" height="512">
<path d="M0 0 C29.43195851 20.04236374 46.0746154 56.53399632 55.4375 89.875 C55.4375 90.865 55.4375 91.855 55.4375 92.875 C56.13085449 92.73400879 56.82420898 92.59301758 57.53857422 92.44775391 C94.69533287 84.94760474 138.73749301 77.70394277 172.4375 99.875 C182.84751059 108.56891893 189.28069124 118.43789055 191.4375 131.875 C193.72622843 168.98241665 172.7920123 201.01716822 149.09375 227.859375 C148.65546875 228.35373047 148.2171875 228.84808594 147.765625 229.35742188 C145.60759839 231.82328464 143.5247604 234.34911242 141.4375 236.875 C142.69409418 241.48251198 145.27738519 243.90150087 148.6171875 247.1015625 C151.12868506 249.54838631 153.30237526 252.09286776 155.4375 254.875 C155.4375 255.535 155.4375 256.195 155.4375 256.875 C156.18 256.545 156.9225 256.215 157.6875 255.875 C165.66943251 253.74648466 173.57142944 254.01436937 181.1171875 257.49609375 C188.30567978 261.76804287 192.34872109 267.1931013 194.81640625 275.14453125 C196.47698579 282.4448149 195.7588062 289.12369031 192.4375 295.875 C191.36275457 297.23216029 190.2578112 298.56591612 189.125 299.875 C186.94658296 302.57429767 186.94658296 302.57429767 186.390625 305.8828125 C186.93706652 308.27129076 187.66789107 310.54860223 188.4375 312.875 C192.14697743 326.76356477 193.68628876 341.18250757 188.4375 354.875 C188.18226563 355.5659375 187.92703125 356.256875 187.6640625 356.96875 C182.19374354 369.61572593 170.3302473 378.0788762 158.1484375 383.48828125 C144.09641173 388.73930141 129.77681195 390.10973106 114.875 390.125 C114.19142426 390.12600708 113.50784851 390.12701416 112.80355835 390.12805176 C93.24686627 390.10868729 74.5100806 386.99033229 55.4375 382.875 C55.30794922 383.72396851 55.30794922 383.72396851 55.17578125 384.59008789 C53.84850807 392.21201499 51.29500233 399.14224038 48.4375 406.3125 C48.19517639 406.92417023 47.95285278 407.53584045 47.70318604 408.16604614 C36.45087912 436.46352109 20.35813442 466.03929842 -8.11328125 479.90234375 C-18.78899636 484.14198181 -32.68909964 485.03168494 -43.6875 481.25 C-45.33726866 480.51133603 -46.96459478 479.72002072 -48.5625 478.875 C-49.39652344 478.45089844 -50.23054687 478.02679688 -51.08984375 477.58984375 C-57.73480537 473.91412538 -63.0969486 469.09887736 -68.5625 463.875 C-69.45195312 463.09769531 -69.45195312 463.09769531 -70.359375 462.3046875 C-91.21205443 443.33867906 -104.62088506 409.61226722 -110.5625 382.875 C-118.8125 384.525 -127.0625 386.175 -135.5625 387.875 C-136.5525 391.175 -137.5425 394.475 -138.5625 397.875 C-142.60417402 404.55655224 -149.19812246 409.42020749 -156.5625 411.875 C-166.78374316 412.67640853 -173.74174601 411.57911617 -182.3125 406.125 C-187.53972436 400.89777564 -189.74454806 396.24545826 -190.5625 388.875 C-191.49449219 388.71644531 -192.42648438 388.55789063 -193.38671875 388.39453125 C-210.53006167 385.25707415 -227.76371194 379.37635135 -238.21484375 364.52734375 C-247.09540775 350.47911659 -248.42713136 335.05811576 -245 319 C-242.94769304 310.09912114 -239.60428824 302.03762329 -235.5625 293.875 C-235.11414795 292.9459082 -235.11414795 292.9459082 -234.65673828 291.99804688 C-225.61957401 273.40563319 -212.64501675 257.17248692 -198.53125 242.1875 C-196.38091082 239.95388919 -196.38091082 239.95388919 -195.5625 236.875 C-196.03558594 236.42511719 -196.50867188 235.97523438 -196.99609375 235.51171875 C-221.33237545 211.83958509 -245.98447356 176.00156097 -246.875 141 C-246.62112156 127.33536616 -242.91428302 115.35626034 -233.5625 105.1875 C-216.2325105 89.0147719 -192.53581857 85.46374042 -169.6875 85.5625 C-169.02085327 85.56399048 -168.35420654 85.56548096 -167.6673584 85.5670166 C-148.22464701 85.64439478 -129.47052169 88.48245251 -110.5625 92.875 C-110.4485791 92.3188501 -110.3346582 91.7627002 -110.21728516 91.18969727 C-109.10074186 85.93194489 -107.69605992 80.88880814 -105.9375 75.8125 C-105.70804688 75.13767578 -105.47859375 74.46285156 -105.2421875 73.76757812 C-104.68651036 72.13527651 -104.1251328 70.50491717 -103.5625 68.875 C-104.11679688 68.29492188 -104.67109375 67.71484375 -105.2421875 67.1171875 C-106.32886719 65.94542969 -106.32886719 65.94542969 -107.4375 64.75 C-108.51644531 63.60144531 -108.51644531 63.60144531 -109.6171875 62.4296875 C-114.84167417 55.56861464 -114.38190255 47.11170267 -113.5625 38.875 C-111.53816183 31.96152367 -107.67731086 26.68188614 -101.5625 22.875 C-93.77466349 18.67953252 -86.50437133 17.51172515 -77.9375 19.875 C-77.15375 20.205 -76.37 20.535 -75.5625 20.875 C-75.34464844 20.33488281 -75.12679687 19.79476562 -74.90234375 19.23828125 C-67.98495409 7.03705459 -52.92932481 -2.8685583 -39.71069336 -6.65551758 C-26.00352103 -9.65118668 -11.89085121 -7.06436807 0 0 Z M-66.5625 25.875 C-65.01013717 29.04933834 -63.28674857 32.0687005 -61.46484375 35.09375 C-58.21550315 41.50803275 -58.72254764 49.88636925 -60.6875 56.625 C-63.57800893 64.08437789 -68.4157189 68.58292319 -75.6171875 71.94140625 C-81.13278935 73.68972036 -86.81241009 73.78386025 -92.5625 73.875 C-93.54861151 76.41416175 -94.52650876 78.9560023 -95.5 81.5 C-95.77779297 82.21285156 -96.05558594 82.92570312 -96.34179688 83.66015625 C-97.88978612 87.72595932 -99.02085952 91.52816375 -99.5625 95.875 C-94.35264961 97.8631501 -89.13103685 99.70897621 -83.8203125 101.40625 C-68.06065464 106.5120688 -52.56169538 111.68718158 -37.50830078 118.66015625 C-36.05399658 119.31757813 -36.05399658 119.31757813 -34.5703125 119.98828125 C-33.74160645 120.37798096 -32.91290039 120.76768066 -32.05908203 121.16918945 C-27.10210363 122.57058047 -22.7921129 120.73481412 -18.23046875 118.7578125 C-17.20034668 118.32082031 -16.17022461 117.88382812 -15.10888672 117.43359375 C-14.0004541 116.96050781 -12.89202148 116.48742187 -11.75 116 C2.92394519 109.86602652 17.90967417 104.86496717 33.03613281 99.9765625 C37.17872828 98.63494674 41.30929831 97.26018026 45.4375 95.875 C36.85212105 68.22556498 26.20675704 39.08931011 4.4375 18.875 C3.73109375 18.17503906 3.0246875 17.47507812 2.296875 16.75390625 C-7.61168193 7.2659956 -17.74548123 3.25360284 -31.34375 3.53515625 C-46.33470282 4.34885436 -56.78967951 15.73493364 -66.5625 25.875 Z M-227.4375 115.6875 C-234.25854983 123.97250157 -236.37585356 134.34659007 -235.5625 144.875 C-231.74899874 172.89453889 -215.64216711 196.85820285 -197.5625 217.875 C-196.76585937 218.82890625 -195.96921875 219.7828125 -195.1484375 220.765625 C-194.35695312 221.68859375 -193.56546875 222.6115625 -192.75 223.5625 C-192.04230469 224.39136719 -191.33460938 225.22023437 -190.60546875 226.07421875 C-188.5162735 228.31582802 -188.5162735 228.31582802 -184.5625 227.875 C-182.63385018 226.55687979 -182.63385018 226.55687979 -180.83984375 224.69140625 C-180.14238037 224.0156958 -179.44491699 223.33998535 -178.72631836 222.64379883 C-177.9916333 221.91572021 -177.25694824 221.1876416 -176.5 220.4375 C-174.96079052 218.9505772 -173.41913111 217.46618618 -171.875 215.984375 C-171.12992187 215.26830078 -170.38484375 214.55222656 -169.6171875 213.81445312 C-165.47474264 209.90433169 -161.02505781 206.40735162 -156.5625 202.875 C-155.29253246 201.83936766 -154.02444315 200.80142962 -152.7578125 199.76171875 C-141.32167428 190.3867846 -141.32167428 190.3867846 -136.94140625 187.21875 C-136.3889624 186.81849609 -135.83651855 186.41824219 -135.26733398 186.00585938 C-133.79320874 184.95066727 -132.30717949 183.91216063 -130.8203125 182.875 C-126.81401259 179.32616686 -126.29184178 175.02618946 -125.703125 169.87890625 C-125.48825439 168.10217529 -125.48825439 168.10217529 -125.26904297 166.28955078 C-125.11838379 165.01837402 -124.96772461 163.74719727 -124.8125 162.4375 C-123.44205534 151.36415662 -121.66746666 140.43275539 -119.4375 129.5 C-119.18387695 128.25420166 -118.93025391 127.00840332 -118.66894531 125.72485352 C-117.66338449 120.88135792 -116.63708452 116.0590694 -115.3828125 111.2734375 C-114.40607298 107.80961839 -114.40607298 107.80961839 -114.5625 103.875 C-121.32676433 101.73171625 -128.12809557 100.34926772 -135.125 99.25 C-136.29252808 99.06570435 -136.29252808 99.06570435 -137.48364258 98.87768555 C-166.82788631 94.42153718 -205.18314201 92.35100621 -227.4375 115.6875 Z M59.4375 103.875 C60.5502029 110.20190028 61.75361877 116.50755162 63.0234375 122.8046875 C63.4652498 125.01470387 63.9064226 127.22484732 64.3475647 129.43499756 C64.66146655 130.99797538 64.97841564 132.56034386 65.29818726 134.12213135 C67.00247122 142.46210929 68.57129464 150.68581344 69.15234375 159.1875 C69.66897229 172.84337566 69.66897229 172.84337566 76.12109375 184.3203125 C79.83037889 187.44758826 83.84172377 189.95648387 88.02587891 192.39648438 C91.92847141 194.78908411 95.37075673 197.69234076 98.875 200.625 C99.53338867 201.16205566 100.19177734 201.69911133 100.87011719 202.25244141 C105.74551585 206.23504037 110.42546808 210.38856927 115.046875 214.6640625 C120.70151379 219.89367942 126.58175505 224.87321786 132.4375 229.875 C152.44363165 208.96565699 169.76067293 184.69705278 178.4375 156.875 C178.68371094 156.1015625 178.92992187 155.328125 179.18359375 154.53125 C182.58220842 141.96809508 180.88613424 129.8518614 174.625 118.625 C173.5421875 117.26375 173.5421875 117.26375 172.4375 115.875 C171.78587891 115.04935547 171.78587891 115.04935547 171.12109375 114.20703125 C160.88330119 102.58367278 143.21665573 98.45581787 128.4375 96.875 C93.24081493 95.17567385 93.24081493 95.17567385 59.4375 103.875 Z M-103.5625 106.875 C-107.64248422 121.3473556 -110.57103463 135.85379803 -112.9375 150.6875 C-113.07037415 151.5171225 -113.20324829 152.346745 -113.34014893 153.20150757 C-113.71841487 155.57764668 -114.09141921 157.95451715 -114.4609375 160.33203125 C-114.57314636 161.04980743 -114.68535522 161.76758362 -114.80096436 162.5071106 C-115.23067427 165.33236973 -115.5625 168.01207014 -115.5625 170.875 C-111.00014645 169.30478272 -107.2260392 166.79162472 -103.25 164.125 C-86.45197131 153.09541363 -68.97724993 143.33497906 -51.03173828 134.31713867 C-49.39374268 133.4872644 -49.39374268 133.4872644 -47.72265625 132.640625 C-46.74949463 132.15368164 -45.77633301 131.66673828 -44.77368164 131.16503906 C-42.43141025 130.06881855 -42.43141025 130.06881855 -41.5625 127.875 C-55.1199778 122.21543544 -68.75713273 116.96971542 -82.6875 112.3125 C-83.3308429 112.09531311 -83.97418579 111.87812622 -84.63702393 111.65435791 C-86.48732899 111.0317507 -88.34127363 110.41999252 -90.1953125 109.80859375 C-91.25637207 109.45853271 -92.31743164 109.10847168 -93.41064453 108.74780273 C-96.78350433 107.81380012 -100.09163767 107.29922865 -103.5625 106.875 Z M-13.5625 127.875 C-11.35205082 130.31554937 -9.26944161 131.67883196 -6.30078125 133.08203125 C-5.01167847 133.70356079 -5.01167847 133.70356079 -3.6965332 134.33764648 C-2.76542725 134.78309814 -1.83432129 135.2285498 -0.875 135.6875 C18.83704111 145.33840811 39.35517579 156.31681364 56.828125 169.70703125 C58.37585563 171.07078459 58.37585563 171.07078459 60.4375 170.875 C59.86506682 162.12337732 58.70284224 153.57297829 57.1875 144.9375 C56.86023926 143.05454224 56.86023926 143.05454224 56.52636719 141.13354492 C54.00705609 123.55783909 54.00705609 123.55783909 48.4375 106.875 C28.61342157 106.875 4.60886201 120.46946639 -13.5625 127.875 Z M-34.83203125 137.26171875 C-35.87375488 137.7810498 -36.91547852 138.30038086 -37.98876953 138.83544922 C-39.10622559 139.40537598 -40.22368164 139.97530273 -41.375 140.5625 C-42.53628418 141.15047363 -43.69756836 141.73844727 -44.89404297 142.34423828 C-83.5935122 161.12158964 -83.5935122 161.12158964 -117.5625 186.875 C-117.7948958 189.07960931 -117.95943633 191.29139517 -118.09765625 193.50390625 C-118.14081467 194.19185776 -118.18397308 194.87980927 -118.22843933 195.58860779 C-118.36792109 197.87120858 -118.49788651 200.15417813 -118.625 202.4375 C-118.66919067 203.22374756 -118.71338135 204.00999512 -118.75891113 204.82006836 C-119.61951198 220.46606101 -119.94740544 236.0585006 -119.60491943 251.72967529 C-119.55990799 254.00608864 -119.53049531 256.28239975 -119.50244141 258.55908203 C-119.44743551 262.57491827 -119.34004534 266.58666323 -119.19836426 270.6003418 C-119.15002384 272.14031805 -119.11590222 273.68081616 -119.0970459 275.22143555 C-119.16063449 283.68107327 -119.16063449 283.68107327 -115.82128906 291.18017578 C-113.50130751 293.03893146 -111.16896877 294.44916168 -108.5625 295.875 C-106.88290733 296.98710715 -105.20850052 298.10708154 -103.5390625 299.234375 C-101.75902742 300.37058875 -99.97502185 301.50060141 -98.1875 302.625 C-97.22779297 303.23134277 -96.26808594 303.83768555 -95.27929688 304.46240234 C-79.92779604 314.10142226 -64.1272638 322.94165346 -48.14697266 331.49121094 C-46.47211986 332.38796756 -44.79974656 333.28937679 -43.13037109 334.19628906 C-40.94974071 335.37732919 -38.75882767 336.53597934 -36.5625 337.6875 C-35.62047729 338.20316528 -35.62047729 338.20316528 -34.65942383 338.72924805 C-30.4437059 340.89161315 -28.10823469 340.94487389 -23.5625 339.875 C-20.63858772 338.71731301 -20.63858772 338.71731301 -17.6953125 337.20703125 C-16.01393188 336.37244385 -16.01393188 336.37244385 -14.29858398 335.52099609 C-13.09443391 334.91072851 -11.89075017 334.29954001 -10.6875 333.6875 C-10.07190216 333.37709778 -9.45630432 333.06669556 -8.822052 332.74688721 C9.04079404 323.72744787 26.37491494 313.65266454 43.0625 302.60546875 C45.92569993 300.73763837 48.72640621 299.25234969 51.875 297.92578125 C56.22052609 295.95337236 59.80433875 293.96751592 62.4375 289.875 C65.2007924 281.39664201 64.54336953 272.12309908 64.449646 263.30981445 C64.43194043 259.76051475 64.48811508 256.21317349 64.53982544 252.66430664 C64.6971972 241.85606431 64.65601674 231.05986912 64.49853516 220.25195312 C64.45191575 216.87949211 64.43825593 213.51124931 64.47412109 210.13867188 C65.41109187 195.2491716 65.41109187 195.2491716 59.6328125 182.32421875 C56.57164011 179.93473781 53.24862733 178.40560951 49.68505859 176.90478516 C46.46373781 175.42884218 43.60841661 173.50540776 40.65893555 171.55297852 C23.53618708 160.22035933 5.33961834 150.53726335 -12.93505859 141.21923828 C-14.7360956 140.29780084 -16.53042743 139.36317301 -18.31884766 138.41748047 C-19.19976074 137.95873535 -20.08067383 137.49999023 -20.98828125 137.02734375 C-21.77243408 136.61347412 -22.55658691 136.19960449 -23.36450195 135.77319336 C-27.84801947 133.94104175 -30.77098827 135.22711599 -34.83203125 137.26171875 Z M-135.8125 199.6875 C-136.43930664 200.18233887 -137.06611328 200.67717773 -137.71191406 201.18701172 C-147.63587486 209.06487211 -157.21340133 217.32278037 -166.5625 225.875 C-167.08859863 226.35598145 -167.61469727 226.83696289 -168.15673828 227.33251953 C-171.62968377 230.50861493 -175.09770919 233.69001189 -178.5625 236.875 C-177.16936804 240.0500145 -175.55811386 242.08456941 -173.03515625 244.44921875 C-171.97929321 245.44344849 -171.97929321 245.44344849 -170.90209961 246.45776367 C-170.15065674 247.15232666 -169.39921387 247.84688965 -168.625 248.5625 C-167.8522876 249.28219971 -167.0795752 250.00189941 -166.28344727 250.7434082 C-160.56089719 256.03693134 -154.67178251 261.03368178 -148.5625 265.875 C-147.19866941 266.99253602 -145.836849 268.11252774 -144.4765625 269.234375 C-143.75799072 269.82516846 -143.03941895 270.41596191 -142.29907227 271.0246582 C-140.87848336 272.19287523 -139.45962247 273.36319762 -138.04272461 274.53588867 C-137.39053955 275.06931885 -136.73835449 275.60274902 -136.06640625 276.15234375 C-135.48705322 276.62921631 -134.9077002 277.10608887 -134.31079102 277.59741211 C-132.47588963 278.93829173 -130.61935905 279.9166362 -128.5625 280.875 C-128.59279297 280.22466797 -128.62308594 279.57433594 -128.65429688 278.90429688 C-129.92138847 250.85283833 -129.86906613 222.9244728 -128.5625 194.875 C-131.0078302 194.875 -133.88314418 198.16005075 -135.8125 199.6875 Z M74.4375 195.875 C74.4375 223.595 74.4375 251.315 74.4375 279.875 C79.44083416 277.01595191 83.45635332 274.40970074 87.6875 270.6875 C88.83123931 269.69830234 89.97578205 268.71003294 91.12109375 267.72265625 C91.68296387 267.23684082 92.24483398 266.75102539 92.82373047 266.25048828 C95.08870379 264.31994975 97.42040502 262.47672934 99.75 260.625 C104.66798858 256.6164028 109.34913042 252.37728069 114 248.0625 C114.70358643 247.41571289 115.40717285 246.76892578 116.13208008 246.10253906 C117.12050903 245.17586426 117.12050903 245.17586426 118.12890625 244.23046875 C118.71873291 243.68028076 119.30855957 243.13009277 119.91625977 242.56323242 C121.52578438 240.77702431 122.46726989 239.06481144 123.4375 236.875 C117.29318828 230.62903606 111.11707135 224.55263564 104.4375 218.875 C103.41047177 217.9737793 102.38452373 217.07132683 101.359375 216.16796875 C88.87544782 203.54382429 88.87544782 203.54382429 74.4375 195.875 Z M131.4375 245.875 C130.6640625 246.66003906 129.890625 247.44507813 129.09375 248.25390625 C123.38504189 254.02331594 117.64860286 259.64282096 111.4375 264.875 C110.5196875 265.67035156 109.601875 266.46570313 108.65625 267.28515625 C101.18408149 273.73296226 93.45034328 279.78370694 85.578125 285.734375 C84.57519409 286.5246106 84.57519409 286.5246106 83.55200195 287.33081055 C81.4375 288.875 81.4375 288.875 79.03198242 290.14770508 C75.67943873 292.12052851 73.13535919 293.92665592 71.77996826 297.71075439 C70.59798284 302.51866334 70.05163256 307.41261856 69.53646851 312.32989502 C69.05217615 316.9495292 68.44235091 321.55315518 67.8515625 326.16015625 C67.73787827 327.07633728 67.62419403 327.99251831 67.50706482 328.9364624 C66.07608734 340.23759302 63.54173977 351.23890657 60.98583984 362.33300781 C60.30166739 365.50469239 59.82520435 368.65477325 59.4375 371.875 C66.59909653 373.89053914 73.78226038 375.34911619 81.125 376.5 C81.90786377 376.62286377 82.69072754 376.74572754 83.49731445 376.87231445 C85.80858154 377.22418189 88.12157201 377.55532202 90.4375 377.875 C91.13447998 377.97361328 91.83145996 378.07222656 92.54956055 378.17382812 C116.22340599 381.19105634 145.32768777 381.01099054 165.4453125 366.45703125 C173.25318029 360.25666565 178.57815706 352.92296436 180.4375 342.875 C181.28544042 331.81007257 180.77889034 318.38708551 174.4375 308.875 C171.41509207 308.70103057 171.41509207 308.70103057 167.9375 309 C159.80363782 309.14985621 154.34997401 307.48875626 148.33984375 301.9375 C142.24028267 295.32442351 140.32957522 288.83275643 140.4375 279.875 C141.29807034 275.15854087 142.69437404 271.09584979 145.1875 267 C146.61677605 265.02736247 146.61677605 265.02736247 146.31640625 263.0859375 C145.04597365 259.89009371 142.9697936 257.8742822 140.625 255.375 C139.75230469 254.4365625 138.87960937 253.498125 137.98046875 252.53125 C135.82723242 250.28209378 133.65197086 248.06366118 131.4375 245.875 Z M-191 250 C-196.71358348 255.86856314 -201.64083832 262.3428651 -206.5625 268.875 C-206.99884766 269.45056641 -207.43519531 270.02613281 -207.88476562 270.61914062 C-222.4300309 289.93189801 -237.66295825 314.78619314 -235.5625 339.875 C-233.82683664 350.89204966 -229.54154472 359.13054719 -220.890625 366.24609375 C-212.3544376 372.21856043 -201.23148162 377.71728802 -190.5625 376.875 C-190.294375 376.30652344 -190.02625 375.73804688 -189.75 375.15234375 C-186.07466525 367.9104835 -181.35892332 362.3106414 -173.8125 358.9375 C-165.91339069 356.45934806 -157.40323401 357.01345883 -149.890625 360.40625 C-144.01189347 364.11497996 -139.86254755 369.35436519 -137.5625 375.875 C-129.53633806 375.46878936 -122.23528805 374.27652224 -114.5625 371.875 C-115.27957597 364.79927442 -116.81316897 357.99420578 -118.375 351.0625 C-121.00487321 339.12151807 -123.02383266 327.17449105 -124.703125 315.06640625 C-124.84661377 314.05763428 -124.99010254 313.0488623 -125.13793945 312.00952148 C-125.43730026 309.79934703 -125.70360548 307.58457194 -125.94604492 305.36743164 C-126.65223745 298.74071602 -126.65223745 298.74071602 -129.70703125 292.98828125 C-130.58746094 292.39402344 -131.46789062 291.79976563 -132.375 291.1875 C-133.36371094 290.47980469 -134.35242188 289.77210938 -135.37109375 289.04296875 C-136.42425781 288.32753906 -137.47742188 287.61210937 -138.5625 286.875 C-140.69835285 285.26188988 -142.82237426 283.63955803 -144.9375 282 C-145.47842285 281.58669434 -146.0193457 281.17338867 -146.57666016 280.74755859 C-157.39431682 272.45945141 -167.5822386 263.37163217 -177.5546875 254.09375 C-178.05597168 253.6304126 -178.55725586 253.1670752 -179.07373047 252.68969727 C-180.4903978 251.37919868 -181.90160032 250.06279985 -183.3125 248.74609375 C-186.95403381 245.71780435 -187.95394617 246.97294443 -191 250 Z M-115.5625 304.875 C-113.07123025 326.46186785 -109.72860104 347.99981995 -103.5625 368.875 C-94.61880189 367.46064774 -86.17509699 364.63288434 -77.625 361.75 C-76.89926788 361.50744476 -76.17353577 361.26488953 -75.42581177 361.01498413 C-63.90247956 357.1569207 -52.63005651 352.91095466 -41.5625 347.875 C-44.09221626 344.96934732 -46.89064908 343.53365863 -50.3203125 341.828125 C-51.49126465 341.23797607 -52.6622168 340.64782715 -53.86865234 340.03979492 C-54.49100769 339.72819427 -55.11336304 339.41659363 -55.75457764 339.09555054 C-74.28945591 329.78889839 -92.28406039 319.5171107 -109.32763672 307.66674805 C-112.17645136 305.52569115 -112.17645136 305.52569115 -115.5625 304.875 Z M52.0625 309.125 C35.82429934 320.13549523 18.72198247 329.62480351 1.4375 338.875 C0.63683105 339.30425781 -0.16383789 339.73351562 -0.98876953 340.17578125 C-5.1747904 342.41876926 -9.36563929 344.65236349 -13.5625 346.875 C-11.27612203 349.16137797 -9.53080111 349.81537582 -6.5234375 350.9765625 C-5.47929687 351.38068359 -4.43515625 351.78480469 -3.359375 352.20117188 C-1.66554688 352.8440918 -1.66554688 352.8440918 0.0625 353.5 C1.22007812 353.94150391 2.37765625 354.38300781 3.5703125 354.83789062 C11.47874215 357.82504204 19.42601037 360.67656673 27.4375 363.375 C28.3960791 363.70064941 29.3546582 364.02629883 30.34228516 364.36181641 C36.31174424 366.33417848 42.24452615 367.79358049 48.4375 368.875 C51.20494924 359.76908535 53.43657789 350.70628176 55.19287109 341.34326172 C55.56259637 339.37448682 55.94264275 337.40791508 56.32421875 335.44140625 C59.45955959 320.27135303 59.45955959 320.27135303 60.4375 304.875 C57.11364387 304.875 54.71878324 307.28531996 52.0625 309.125 Z M-34.375 355.859375 C-35.35098145 356.29443359 -36.32696289 356.72949219 -37.33251953 357.17773438 C-38.39841309 357.65533203 -39.46430664 358.13292969 -40.5625 358.625 C-55.321051 365.07640644 -70.50023668 370.08690398 -85.83157349 374.98651123 C-90.46605938 376.47700725 -95.01395031 378.13921128 -99.5625 379.875 C-93.44709599 409.85093331 -76.39418282 447.27911565 -50.46875 464.98828125 C-40.35328845 471.03502374 -31.33099482 473.27539636 -19.5625 471.875 C-11.28393539 469.74105469 -4.96998661 465.37240214 1.4375 459.875 C2.63632812 458.9778125 2.63632812 458.9778125 3.859375 458.0625 C6.90344001 455.47965696 9.31993114 452.5807648 11.75 449.4375 C12.22928955 448.81987793 12.7085791 448.20225586 13.20239258 447.56591797 C28.40648552 427.66117761 38.63379062 403.87100944 45.4375 379.875 C44.81109619 379.6797876 44.18469238 379.4845752 43.53930664 379.28344727 C22.33806908 372.65096941 1.24578161 365.78419371 -19.01660156 356.61743164 C-20.22461426 356.07783813 -20.22461426 356.07783813 -21.45703125 355.52734375 C-22.50661011 355.04769165 -22.50661011 355.04769165 -23.57739258 354.55834961 C-27.7317178 353.12827258 -30.5940046 354.12714477 -34.375 355.859375 Z " fill="#5A72B9" transform="translate(281.5625,18.125)"/>
<path d="M0 0 C2.51775906 2.21341456 3.63123313 4.35231433 4.03461266 7.69337273 C4.03796434 8.46357309 4.04131603 9.23377346 4.04476929 10.02731323 C4.05329926 10.91604126 4.06182922 11.80476929 4.07061768 12.72042847 C4.0697113 13.68779938 4.06880493 14.65517029 4.06787109 15.65185547 C4.07458832 16.6766803 4.08130554 17.70150513 4.08822632 18.75738525 C4.10723793 22.14820187 4.11113211 25.53882089 4.11328125 28.9296875 C4.11970687 31.28614382 4.12643505 33.64259933 4.13345337 35.99905396 C4.14543399 40.94030609 4.14913337 45.88148827 4.14794922 50.82275391 C4.14774597 57.15365723 4.17505164 63.48411198 4.20949364 69.81490898 C4.23173334 74.68252624 4.23578765 79.55003504 4.23472977 84.41769791 C4.23709 86.7516853 4.24593718 89.08567549 4.2613945 91.41961288 C4.28099487 94.68484647 4.27523921 97.94910613 4.26318359 101.21435547 C4.27442261 102.17767792 4.28566162 103.14100037 4.29724121 104.1335144 C4.24434929 109.77244088 3.62555893 113.13513129 -0.22265625 117.5625 C-8.73356048 123.34497451 -18.12365363 126.03234809 -28.22265625 127.5625 C-29.4034375 127.74554688 -30.58421875 127.92859375 -31.80078125 128.1171875 C-51.98715675 130.53491978 -80.37993662 131.13508337 -97.76171875 118.75390625 C-102.74396961 114.51987327 -102.74396961 114.51987327 -104.22265625 111.5625 C-104.32894708 110.16180364 -104.37510022 108.75629835 -104.39001465 107.35165405 C-104.40150543 106.46856567 -104.41299622 105.58547729 -104.42483521 104.67562866 C-104.43223724 103.70420929 -104.43963928 102.73278992 -104.44726562 101.73193359 C-104.4586557 100.7106134 -104.47004578 99.68929321 -104.48178101 98.63702393 C-104.5924618 87.94606073 -104.63986968 77.2544038 -104.68261719 66.56298828 C-104.70489115 61.48972749 -104.7466571 56.41720243 -104.80566406 51.34423828 C-104.87675083 45.2210364 -104.91344977 39.09852697 -104.92573547 32.97493362 C-104.9361369 30.64252936 -104.95856281 28.31014605 -104.99333191 25.97797775 C-105.03956256 22.70764402 -105.04153457 19.44002198 -105.03320312 16.16943359 C-105.05679901 15.21015961 -105.0803949 14.25088562 -105.10470581 13.26254272 C-105.02630871 6.88748203 -103.44964488 3.68198113 -99.00388336 -0.88759422 C-76.72082845 -20.27683174 -23.05735808 -15.34377536 0 0 Z M-90.22265625 6.5625 C-91.96429558 8.59669619 -91.96429558 8.59669619 -93.22265625 10.5625 C-76.87518448 22.82310383 -51.03683496 22.27545241 -31.66015625 19.8125 C-22.95266223 18.3263652 -13.84030144 16.7551588 -7.22265625 10.5625 C-7.22265625 9.9025 -7.22265625 9.2425 -7.22265625 8.5625 C-28.66137653 -3.43749166 -68.25543272 -6.97332031 -90.22265625 6.5625 Z M-93.22265625 24.5625 C-93.22265625 30.8325 -93.22265625 37.1025 -93.22265625 43.5625 C-72.4807825 54.68495404 -45.38096205 55.80472571 -22.52734375 50.62890625 C-17.0493294 48.86117822 -12.23597422 46.38249136 -7.22265625 43.5625 C-7.22265625 37.2925 -7.22265625 31.0225 -7.22265625 24.5625 C-10.68765625 25.490625 -10.68765625 25.490625 -14.22265625 26.4375 C-37.7956551 32.40919764 -65.1517602 33.64407824 -88.28393555 25.15942383 C-90.36242918 24.41536828 -90.36242918 24.41536828 -93.22265625 24.5625 Z M-93.22265625 56.5625 C-93.39729595 59.64511456 -93.50359692 62.72645833 -93.59765625 65.8125 C-93.64792969 66.68519531 -93.69820312 67.55789063 -93.75 68.45703125 C-93.80713248 70.95181603 -93.76988522 73.12641196 -93.22265625 75.5625 C-82.29856922 85.73264857 -61.02656731 86.0109645 -46.8203125 85.75 C-25.52710764 84.87003067 -25.52710764 84.87003067 -7.22265625 75.5625 C-6.4864071 72.28495468 -6.65537808 69.15025176 -6.84765625 65.8125 C-6.87472656 64.92433594 -6.90179688 64.03617187 -6.9296875 63.12109375 C-7.00029001 60.93241605 -7.09880098 58.74870432 -7.22265625 56.5625 C-7.8038623 56.76214355 -8.38506836 56.96178711 -8.98388672 57.16748047 C-36.03556959 66.22220176 -66.19784499 64.63670814 -93.22265625 56.5625 Z M-93.22265625 88.5625 C-93.36819971 91.64533443 -93.45679446 94.72728439 -93.53515625 97.8125 C-93.57705078 98.68519531 -93.61894531 99.55789063 -93.66210938 100.45703125 C-93.82765927 105.73035579 -93.82765927 105.73035579 -91.046875 110.0390625 C-88.28524525 111.5287383 -85.70471982 112.7125946 -82.72265625 113.6875 C-81.80484375 113.99945313 -80.88703125 114.31140625 -79.94140625 114.6328125 C-69.9914376 117.12030466 -60.14168079 117.92524508 -49.91015625 117.875 C-48.73461182 117.87081055 -47.55906738 117.86662109 -46.34790039 117.86230469 C-32.78045969 117.68674692 -18.8048736 116.28397823 -7.22265625 108.5625 C-6.80738501 106.43555335 -6.80738501 106.43555335 -6.9296875 103.9921875 C-6.93935547 103.09628906 -6.94902344 102.20039063 -6.95898438 101.27734375 C-6.98412109 100.34019531 -7.00925781 99.40304687 -7.03515625 98.4375 C-7.04869141 97.49261719 -7.06222656 96.54773438 -7.07617188 95.57421875 C-7.11159319 93.23641221 -7.16098354 90.89973763 -7.22265625 88.5625 C-8.03347656 88.82804687 -8.84429687 89.09359375 -9.6796875 89.3671875 C-37.08259796 98.10804602 -65.98461744 97.64184627 -93.22265625 88.5625 Z " fill="#5B72B8" transform="translate(304.22265625,197.4375)"/>
</svg>
